<?xml version="1.0" encoding="UTF-8" standalone="no"?>
<svg
   xmlns:dc="http://purl.org/dc/elements/1.1/"
   xmlns:cc="http://creativecommons.org/ns#"
   xmlns:rdf="http://www.w3.org/1999/02/22-rdf-syntax-ns#"
   xmlns:svg="http://www.w3.org/2000/svg"
   xmlns="http://www.w3.org/2000/svg"
   xmlns:xlink="http://www.w3.org/1999/xlink"
   xmlns:sodipodi="http://sodipodi.sourceforge.net/DTD/sodipodi-0.dtd"
   xmlns:inkscape="http://www.inkscape.org/namespaces/inkscape"
   width="256"
   height="256"
   viewBox="0 0 67.73333 67.733335"
   version="1.1"
   id="svg8"
   inkscape:version="1.0.2 (e86c870879, 2021-01-15)"
   sodipodi:docname="lockpdf.svg">
  <defs
     id="defs2">
    <linearGradient
       inkscape:collect="always"
       id="linearGradient967">
      <stop
         style="stop-color:#8e0000;stop-opacity:1"
         offset="0"
         id="stop963" />
      <stop
         style="stop-color:#c60000;stop-opacity:1"
         offset="1"
         id="stop965" />
    </linearGradient>
    <linearGradient
       inkscape:collect="always"
       id="linearGradient941">
      <stop
         style="stop-color:#ffffff;stop-opacity:1;"
         offset="0"
         id="stop937" />
      <stop
         style="stop-color:#a9a9a9;stop-opacity:1"
         offset="1"
         id="stop939" />
    </linearGradient>
    <linearGradient
       inkscape:collect="always"
       id="linearGradient927">
      <stop
         style="stop-color:#ffffff;stop-opacity:1;"
         offset="0"
         id="stop923" />
      <stop
         style="stop-color:#e13b3b;stop-opacity:1"
         offset="0.5"
         id="stop953" />
      <stop
         style="stop-color:#5f0000;stop-opacity:1"
         offset="1"
         id="stop925" />
    </linearGradient>
    <linearGradient
       inkscape:collect="always"
       xlink:href="#linearGradient927"
       id="linearGradient929"
       x1="107.39714"
       y1="-8.2558966"
       x2="52.459995"
       y2="113.27547"
       gradientUnits="userSpaceOnUse"
       gradientTransform="matrix(0.49999998,0,0,0.49999998,0.10516127,-0.02661263)" />
    <linearGradient
       inkscape:collect="always"
       xlink:href="#linearGradient941"
       id="linearGradient943"
       x1="76.053276"
       y1="52.199184"
       x2="49.392841"
       y2="114.88651"
       gradientUnits="userSpaceOnUse"
       gradientTransform="matrix(0.5,0,0,0.5,0.10516127,-0.02661263)" />
    <linearGradient
       inkscape:collect="always"
       xlink:href="#linearGradient967"
       id="linearGradient969"
       x1="68.569916"
       y1="114.74908"
       x2="68.569916"
       y2="23.528776"
       gradientUnits="userSpaceOnUse"
       gradientTransform="matrix(0.5,0,0,0.5,0.10516127,-0.02661263)" />
  </defs>
  <sodipodi:namedview
     id="base"
     pagecolor="#ffffff"
     bordercolor="#666666"
     borderopacity="1.0"
     inkscape:pageopacity="0.0"
     inkscape:pageshadow="2"
     inkscape:zoom="1"
     inkscape:cx="333.58349"
     inkscape:cy="308.30674"
     inkscape:document-units="mm"
     inkscape:current-layer="layer4"
     inkscape:document-rotation="0"
     showgrid="false"
     units="px"
     inkscape:window-width="1920"
     inkscape:window-height="1029"
     inkscape:window-x="0"
     inkscape:window-y="27"
     inkscape:window-maximized="1" />
  <metadata
     id="metadata5">
    <rdf:RDF>
      <cc:Work
         rdf:about="">
        <dc:format>image/svg+xml</dc:format>
        <dc:type
           rdf:resource="http://purl.org/dc/dcmitype/StillImage" />
        <dc:title></dc:title>
      </cc:Work>
    </rdf:RDF>
  </metadata>
  <g
     inkscape:groupmode="layer"
     id="layer4"
     inkscape:label="Area interna"
     style="display:inline"
     sodipodi:insensitive="true">
    <rect
       style="display:inline;fill:url(#linearGradient969);fill-opacity:1;stroke-width:0.204173"
       id="rect914"
       width="54.017696"
       height="54.017696"
       x="6.8579035"
       y="6.8577371"
       ry="1.1780785" />
  </g>
  <g
     inkscape:groupmode="layer"
     id="layer5"
     inkscape:label="Disegno interno"
     style="display:inline"
     sodipodi:insensitive="true">
    <path
       style="display:inline;fill:url(#linearGradient943);fill-opacity:1;stroke-width:0.132291"
       d="m 23.388494,60.574028 c 0.259884,-0.06522 5.199702,-1.588125 8.334375,-2.44206 8.821775,-2.403195 18.073939,-4.50432 21.365103,-4.85192 0.800365,-0.08453 1.499855,-0.18061 1.554425,-0.213505 0.501445,-0.302285 -0.504745,-1.267655 -3.515495,-3.372869 C 48.349946,47.75194 46.574228,46.285682 44.164244,43.94442 38.417782,38.361824 33.392561,31.892151 28.554336,23.847594 26.059644,19.699649 24.475034,17.559808 24.025738,17.73222 c -0.23982,0.09203 -0.837789,1.695831 -2.927577,7.852008 -0.842094,2.480676 -1.885976,5.397707 -2.319739,6.482291 -2.573546,6.43493 -6.354205,14.746144 -9.9106351,21.787059 L 6.6874315,58.114803 6.8085365,35.069964 8.7871209,30.609902 C 12.704475,21.779524 15.325288,14.11244 16.844306,8.7377097 l 0.542165,-1.886643 12.488809,0.0021 0.720808,1.553866 C 37.109787,22.44881 47.347287,35.76249 58.175862,43.750872 c 0.906565,0.668786 1.87395,1.342796 2.14974,1.497798 l 0.57193,0.321735 0.08787,13.351853 -0.52217,0.10638 c -0.20009,0.0408 -2.509965,0.43246 -5.133045,0.870405 l -7.692619,1.44433 -26.285966,-0.258155 z"
       id="path933"
       sodipodi:nodetypes="ssssssssscsccssccssscccsccs" />
  </g>
  <g
     inkscape:groupmode="layer"
     id="layer3"
     inkscape:label="Riflesso esterno"
     style="display:inline"
     sodipodi:insensitive="true">
    <path
       id="rect89"
       style="display:inline;fill:url(#linearGradient929);fill-opacity:1;stroke-width:0.208773"
       d="m 7.8119255,6.2492317 c -0.865721,0 -1.562695,0.696715 -1.562695,1.562437 V 59.921407 c 0,0.865722 0.696974,1.562696 1.562695,1.562696 H 59.921665 c 0.865722,0 1.562437,-0.696974 1.562437,-1.562696 V 7.8116687 c 0,-0.865722 -0.696715,-1.562437 -1.562437,-1.562437 z m 0.224018,0.60849 H 59.697648 c 0.652655,0 1.177964,0.525567 1.177964,1.178222 V 59.69739 c 0,0.652656 -0.525309,1.177965 -1.177964,1.177965 H 8.0359435 c -0.652656,0 -1.177965,-0.525309 -1.177965,-1.177965 V 8.0359437 c 0,-0.652655 0.525309,-1.178222 1.177965,-1.178222 z" />
  </g>
  <g
     inkscape:groupmode="layer"
     id="layer2"
     inkscape:label="Contorno esterno"
     style="display:inline"
     sodipodi:insensitive="true">
    <path
       id="rect87"
       style="display:inline;fill:#ff0000;stroke-width:0.213556"
       d="m 7.7796285,5.6167117 c -1.198299,0 -2.162917,0.964619 -2.162917,2.162917 V 59.953705 c 0,1.198299 0.964618,2.162917 2.162917,2.162917 H 59.953705 c 1.198298,0 2.162917,-0.964618 2.162917,-2.162917 V 7.7796287 c 0,-1.198298 -0.964619,-2.162917 -2.162917,-2.162917 z m 0.0323,0.63252 H 59.921668 c 0.865722,0 1.562437,0.696715 1.562437,1.562437 V 59.921407 c 0,0.865722 -0.696715,1.562696 -1.562437,1.562696 H 7.8119255 c -0.865721,0 -1.562695,-0.696974 -1.562695,-1.562696 V 7.8116687 c 0,-0.865722 0.696974,-1.562437 1.562695,-1.562437 z" />
  </g>
</svg>
